<?xml version="1.0" encoding="UTF-8"?>
<svg id="uuid-b833b45d-224d-4182-a6d7-76d6565cb9fc" data-name="Слой 1" xmlns="http://www.w3.org/2000/svg" viewBox="0 0 295.01 52.43">
  <path d="M16.23,3.2c2.26-2.26,5.92-2.26,8.18,0l9.87,9.87-1.07,1.07" fill="none" stroke="#34a938" stroke-miterlimit="10" stroke-width="3"/>
  <path d="M34.28,27.57l-9.87,9.87c-2.26,2.26-5.92,2.26-8.18,0L3.2,24.4c-2.26-2.26-2.26-5.92,0-8.18L16.23,3.2" fill="none" stroke="#34a938" stroke-miterlimit="10" stroke-width="3"/>
  <g>
    <path d="M82.75,8.69V29.69c0,.51-.07,.83-.2,.97-.13,.13-.45,.2-.97,.2h-3.74c-.51,0-.83-.07-.97-.2-.13-.13-.2-.45-.2-.97V8.69c0-.51,.07-.83,.2-.97,.13-.13,.45-.2,.97-.2h3.74c.51,0,.83,.07,.97,.2,.13,.13,.2,.45,.2,.97Z" fill="#1e71b8"/>
    <path d="M93.73,25.73h6.12c.51,0,.83,.07,.97,.2,.13,.13,.2,.45,.2,.97v2.8c0,.51-.07,.83-.2,.97-.13,.13-.45,.2-.97,.2h-11.02c-.51,0-.83-.07-.97-.2-.13-.13-.2-.45-.2-.97V8.69c0-.51,.07-.83,.2-.97,.13-.13,.45-.2,.97-.2h3.74c.51,0,.83,.07,.97,.2,.13,.13,.2,.45,.2,.97V25.73Z" fill="#1e71b8"/>
    <path d="M110.18,25.73h6.12c.51,0,.83,.07,.97,.2,.13,.13,.2,.45,.2,.97v2.8c0,.51-.07,.83-.2,.97-.13,.13-.45,.2-.97,.2h-11.02c-.51,0-.83-.07-.97-.2-.13-.13-.2-.45-.2-.97V8.69c0-.51,.07-.83,.2-.97,.13-.13,.45-.2,.97-.2h3.74c.51,0,.83,.07,.97,.2,.13,.13,.2,.45,.2,.97V25.73Z" fill="#1e71b8"/>
    <path d="M126.15,8.69v11.47c0,1.33,.04,2.24,.11,2.72,.07,.48,.26,.96,.55,1.45,.7,1.18,1.82,1.78,3.38,1.78,.76,0,1.47-.17,2.11-.51s1.12-.8,1.44-1.38c.25-.46,.42-.94,.5-1.45s.12-1.38,.12-2.6V8.69c0-.51,.07-.83,.2-.97s.45-.2,.96-.2h3.74c.51,0,.83,.07,.96,.2s.2,.45,.2,.97v12.29c0,2.23-.3,3.95-.89,5.14-.9,1.82-2.25,3.2-4.03,4.14-1.54,.8-3.34,1.2-5.4,1.2-2.35,0-4.38-.51-6.1-1.52-1.45-.84-2.46-1.94-3.05-3.28-.59-1.34-.88-3.24-.88-5.67V8.69c0-.51,.07-.83,.2-.97,.13-.13,.45-.2,.97-.2h3.74c.51,0,.83,.07,.96,.2s.2,.45,.2,.97Z" fill="#1e71b8"/>
    <path d="M158.96,19.97l4.65-11.57c.18-.43,.33-.69,.44-.76,.11-.07,.4-.11,.86-.11h4.02c.49,0,.8,.05,.92,.16,.12,.11,.23,.41,.31,.9l3.18,21c.04,.31,.07,.51,.07,.6,0,.25-.08,.42-.25,.52s-.47,.15-.91,.15h-3.71c-.5,0-.82-.05-.94-.16-.13-.11-.22-.41-.29-.92l-1.57-12.36-5.28,12.58c-.18,.42-.33,.67-.44,.74-.11,.07-.4,.11-.86,.11h-.53c-.47,0-.76-.04-.87-.11-.11-.07-.26-.33-.43-.76l-5.03-12.56-1.83,12.37c-.08,.49-.18,.79-.31,.9-.13,.11-.43,.16-.92,.16h-3.66c-.44,0-.75-.05-.91-.15-.17-.1-.25-.27-.25-.52,0-.1,.03-.31,.08-.62l3.55-21c.09-.49,.2-.79,.32-.89,.12-.1,.43-.15,.93-.15h3.98c.46,0,.74,.04,.85,.11,.11,.07,.26,.33,.43,.78l4.39,11.55Z" fill="#1e71b8"/>
    <path d="M183.43,8.69V29.69c0,.51-.07,.83-.2,.97-.13,.13-.45,.2-.97,.2h-3.74c-.51,0-.83-.07-.96-.2-.13-.13-.2-.45-.2-.97V8.69c0-.51,.07-.83,.2-.97,.13-.13,.45-.2,.96-.2h3.74c.51,0,.83,.07,.97,.2,.13,.13,.2,.45,.2,.97Z" fill="#1e71b8"/>
    <path d="M201.97,19.97l4.65-11.57c.18-.43,.33-.69,.44-.76,.11-.07,.4-.11,.86-.11h4.02c.49,0,.8,.05,.92,.16,.12,.11,.23,.41,.31,.9l3.18,21c.04,.31,.07,.51,.07,.6,0,.25-.08,.42-.25,.52s-.47,.15-.91,.15h-3.71c-.5,0-.82-.05-.94-.16-.13-.11-.22-.41-.29-.92l-1.57-12.36-5.28,12.58c-.18,.42-.33,.67-.44,.74-.11,.07-.4,.11-.86,.11h-.53c-.47,0-.76-.04-.87-.11-.11-.07-.26-.33-.43-.76l-5.03-12.56-1.83,12.37c-.08,.49-.18,.79-.31,.9-.13,.11-.43,.16-.92,.16h-3.66c-.44,0-.75-.05-.91-.15-.17-.1-.25-.27-.25-.52,0-.1,.03-.31,.08-.62l3.55-21c.09-.49,.2-.79,.32-.89,.12-.1,.43-.15,.93-.15h3.98c.46,0,.74,.04,.85,.11,.11,.07,.26,.33,.43,.78l4.39,11.55Z" fill="#2b2b2b"/>
    <path d="M234.56,26.79h-8.38l-1.25,3.2c-.17,.42-.31,.67-.43,.75-.11,.08-.41,.12-.87,.12h-3.98c-.43,0-.74-.05-.91-.15s-.26-.26-.26-.5c0-.12,.07-.37,.21-.74l8.1-21.05c.04-.09,.07-.19,.1-.29,.1-.27,.22-.44,.34-.5,.12-.06,.4-.09,.84-.09h4.72c.47,0,.76,.04,.87,.12,.11,.08,.25,.34,.41,.77l7.95,21.05c.14,.35,.21,.6,.21,.74,0,.24-.08,.41-.26,.5-.17,.1-.47,.15-.91,.15h-4.05c-.47,0-.76-.04-.87-.12-.11-.08-.25-.34-.41-.77l-1.18-3.18Zm-1.64-4.61l-2.51-7.43-2.55,7.43h5.06Z" fill="#2b2b2b"/>
    <path d="M252.64,12.65V29.69c0,.51-.07,.83-.2,.97-.13,.13-.45,.2-.97,.2h-3.74c-.51,0-.83-.07-.96-.2-.13-.13-.2-.45-.2-.97V12.65h-3.78c-.51,0-.83-.07-.97-.2-.13-.13-.2-.45-.2-.97v-2.8c0-.51,.07-.83,.2-.97s.45-.2,.97-.2h13.71c.51,0,.83,.07,.97,.2,.13,.13,.2,.45,.2,.97v2.8c0,.51-.07,.83-.2,.97-.13,.13-.45,.2-.97,.2h-3.86Z" fill="#2b2b2b"/>
    <path d="M266.4,12.65v3.9h5.66c.51,0,.83,.07,.96,.2s.2,.45,.2,.97v2.8c0,.51-.07,.83-.2,.97s-.45,.2-.96,.2h-5.66v4.05h6.05c.51,0,.83,.07,.97,.2,.13,.13,.2,.45,.2,.97v2.8c0,.51-.07,.83-.2,.97-.13,.13-.45,.2-.97,.2h-10.96c-.51,0-.83-.07-.96-.2-.13-.13-.2-.45-.2-.97V8.69c0-.51,.07-.83,.2-.97,.13-.13,.45-.2,.96-.2h10.96c.51,0,.83,.07,.97,.2,.13,.13,.2,.45,.2,.97v2.8c0,.51-.07,.83-.2,.97-.13,.13-.45,.2-.97,.2h-6.05Z" fill="#2b2b2b"/>
    <path d="M292.15,9.9l-1.32,2.56c-.17,.34-.31,.56-.41,.66s-.25,.15-.43,.15c-.1,0-.72-.31-1.86-.94-.41-.22-1.02-.32-1.83-.32-.86,0-1.52,.23-2,.7-.4,.4-.6,.84-.6,1.33,0,.46,.18,.84,.55,1.15,.34,.29,.69,.5,1.06,.65,.37,.15,1.22,.42,2.58,.82,1.92,.57,3.34,1.34,4.25,2.32,.98,1.06,1.47,2.47,1.47,4.22,0,2.68-.8,4.71-2.39,6.08-1.71,1.46-3.95,2.19-6.73,2.19-1.23,0-2.55-.21-3.97-.64-1.42-.43-2.6-.97-3.53-1.62-.25-.17-.38-.38-.38-.63,0-.1,.1-.35,.31-.73l1.47-2.75c.18-.34,.32-.56,.42-.65,.1-.09,.24-.14,.42-.14,.11,0,.23,.04,.36,.12,.12,.08,.52,.35,1.2,.82,1.01,.71,2.22,1.06,3.61,1.06,1.05,0,1.82-.28,2.31-.84,.39-.44,.58-.92,.58-1.42,0-.65-.25-1.16-.75-1.53-.5-.37-1.46-.77-2.89-1.19-2.23-.65-3.71-1.28-4.44-1.88-1.23-1.01-1.85-2.55-1.85-4.61,0-2.44,.8-4.39,2.41-5.86,1.46-1.34,3.26-2.02,5.42-2.02,1.13,0,2.36,.15,3.7,.46s2.41,.68,3.2,1.11c.25,.15,.38,.35,.38,.6,0,.13-.1,.38-.31,.77Z" fill="#2b2b2b"/>
  </g>
  <path d="M34.28,13.07L44.15,3.2c2.26-2.26,5.92-2.26,8.18,0l13.03,13.03c2.26,2.26,2.26,5.92,0,8.18l-13.03,13.03c-2.26,2.26-5.92,2.26-8.18,0l-9.87-9.87" fill="none" stroke="#2171b8" stroke-miterlimit="10" stroke-width="3"/>
  <path d="M40.33,21.51l-6.01,6.03-6.03-6.01c-.68-.68-.68-1.78,0-2.46l6.01-6.03,6.03,6.01c.68,.68,.68,1.78,0,2.46Z" fill="none" stroke="#2b2b2b" stroke-miterlimit="10" stroke-width="3"/>
</svg>